<svg xmlns="http://www.w3.org/2000/svg" width="1024" height="1024" viewBox="0 0 1024 1024">
  <defs>
    <linearGradient id="shell" x1="118" x2="904" y1="104" y2="920" gradientUnits="userSpaceOnUse">
      <stop offset="0" stop-color="#F9FBFE"/>
      <stop offset="0.54" stop-color="#EDF2F8"/>
      <stop offset="1" stop-color="#D9E2EC"/>
    </linearGradient>
    <linearGradient id="core" x1="168" x2="856" y1="156" y2="870" gradientUnits="userSpaceOnUse">
      <stop offset="0" stop-color="#FFFFFF"/>
      <stop offset="1" stop-color="#F4F7FB"/>
    </linearGradient>
    <linearGradient id="dock" x1="312" x2="452" y1="252" y2="790" gradientUnits="userSpaceOnUse">
      <stop offset="0" stop-color="#FBFDFF"/>
      <stop offset="1" stop-color="#E9EEF5"/>
    </linearGradient>
    <linearGradient id="accent" x1="420" x2="644" y1="286" y2="706" gradientUnits="userSpaceOnUse">
      <stop offset="0" stop-color="#72D1FF"/>
      <stop offset="0.42" stop-color="#0A84FF"/>
      <stop offset="1" stop-color="#1555C5"/>
    </linearGradient>
  </defs>

  <rect x="88" y="88" width="848" height="848" rx="248" fill="url(#shell)"/>
  <rect x="124" y="124" width="776" height="776" rx="224" fill="#FFFFFF" fill-opacity="0.82"/>
  <rect x="154" y="154" width="716" height="716" rx="208" fill="url(#core)" fill-opacity="0.7"/>
  <path d="M296 274H728" fill="none" stroke="#FFFFFF" stroke-opacity="0.76" stroke-linecap="round" stroke-width="18"/>

  <rect x="286" y="242" width="186" height="540" rx="93" fill="url(#dock)" stroke="#C8D1DC" stroke-width="14"/>
  <rect x="552" y="242" width="186" height="540" rx="93" fill="url(#dock)" stroke="#C8D1DC" stroke-width="14"/>

  <circle cx="379" cy="363" r="47" fill="#E6EBF2" stroke="#BBC6D1" stroke-width="12"/>
  <circle cx="379" cy="661" r="47" fill="#FBFCFE" stroke="#D1D9E3" stroke-width="12"/>
  <circle cx="645" cy="363" r="47" fill="#FBFCFE" stroke="#D1D9E3" stroke-width="12"/>
  <circle cx="645" cy="661" r="47" fill="url(#accent)" stroke="#0C6FDD" stroke-width="12"/>

  <path d="M445 363L575 512L445 661" fill="none" stroke="url(#accent)" stroke-linecap="round" stroke-linejoin="round" stroke-width="58"/>
  <path d="M480 512H546" fill="none" stroke="#70839B" stroke-linecap="round" stroke-width="34"/>
  <circle cx="512" cy="512" r="26" fill="#FCFDFF" stroke="#A8B8CA" stroke-width="12"/>
</svg>
