<svg xmlns="http://www.w3.org/2000/svg" width="1024" height="1024" viewBox="0 0 1024 1024">
  <defs>
    <linearGradient id="shell" x1="132" x2="896" y1="112" y2="930" gradientUnits="userSpaceOnUse">
      <stop offset="0" stop-color="#FBFDFF"/>
      <stop offset="0.52" stop-color="#EAF0F7"/>
      <stop offset="1" stop-color="#D6E0EC"/>
    </linearGradient>
    <linearGradient id="panel" x1="228" x2="796" y1="216" y2="824" gradientUnits="userSpaceOnUse">
      <stop offset="0" stop-color="#FFFFFF"/>
      <stop offset="1" stop-color="#F3F7FB"/>
    </linearGradient>
    <linearGradient id="lane" x1="318" x2="718" y1="350" y2="704" gradientUnits="userSpaceOnUse">
      <stop offset="0" stop-color="#F9FBFE"/>
      <stop offset="1" stop-color="#E8EEF5"/>
    </linearGradient>
    <linearGradient id="accent" x1="410" x2="676" y1="398" y2="648" gradientUnits="userSpaceOnUse">
      <stop offset="0" stop-color="#6FD3FF"/>
      <stop offset="0.44" stop-color="#0A84FF"/>
      <stop offset="1" stop-color="#2456D9"/>
    </linearGradient>
    <linearGradient id="accentSoft" x1="374" x2="650" y1="316" y2="802" gradientUnits="userSpaceOnUse">
      <stop offset="0" stop-color="#C6EEFF"/>
      <stop offset="1" stop-color="#6CB8FF"/>
    </linearGradient>
  </defs>

  <rect x="88" y="88" width="848" height="848" rx="248" fill="url(#shell)"/>
  <ellipse cx="372" cy="280" rx="314" ry="248" fill="#FFFFFF" fill-opacity="0.4"/>
  <rect x="124" y="124" width="776" height="776" rx="224" fill="#FFFFFF" fill-opacity="0.56"/>
  <rect x="156" y="156" width="712" height="712" rx="208" fill="#F7FAFD" fill-opacity="0.88"/>
  <path d="M264 246H760" fill="none" stroke="#FFFFFF" stroke-linecap="round" stroke-opacity="0.76" stroke-width="18"/>

  <rect x="232" y="228" width="560" height="584" rx="168" fill="#A8B6C8" fill-opacity="0.18"/>
  <rect x="220" y="208" width="584" height="608" rx="172" fill="url(#panel)"/>
  <rect x="220" y="208" width="584" height="608" rx="172" fill="none" stroke="#D6DFEA" stroke-width="10"/>

  <rect x="290" y="314" width="444" height="164" rx="82" fill="url(#lane)"/>
  <rect x="290" y="314" width="444" height="164" rx="82" fill="none" stroke="#D3DDE8" stroke-width="10"/>
  <circle cx="402" cy="396" r="54" fill="#27384D"/>
  <circle cx="402" cy="396" r="54" fill="none" stroke="#5D6E84" stroke-width="10" opacity="0.28"/>
  <path d="M506 396H654" fill="none" stroke="#B3C0CF" stroke-linecap="round" stroke-width="20"/>

  <rect x="290" y="546" width="444" height="164" rx="82" fill="url(#lane)"/>
  <rect x="290" y="546" width="444" height="164" rx="82" fill="none" stroke="#D3DDE8" stroke-width="10"/>
  <circle cx="622" cy="628" r="54" fill="url(#accent)"/>
  <circle cx="622" cy="628" r="54" fill="none" stroke="#0D73E4" stroke-width="10" opacity="0.36"/>
  <path d="M370 628H518" fill="none" stroke="#B3C0CF" stroke-linecap="round" stroke-width="20"/>

  <path d="M452 450C478 492 523 542 586 584" fill="none" stroke="url(#accentSoft)" stroke-linecap="round" stroke-width="44"/>
  <path d="M566 548L648 592L576 676" fill="none" stroke="url(#accent)" stroke-linecap="round" stroke-linejoin="round" stroke-width="40"/>
</svg>
