<svg xmlns="http://www.w3.org/2000/svg" width="1024" height="1024" viewBox="0 0 1024 1024">
  <rect width="1024" height="1024" rx="232" fill="#EDF2F8"/>
  <rect x="158" y="158" width="708" height="708" rx="198" fill="#F8FAFD" stroke="#D7DFEA" stroke-width="20"/>
  <rect x="286" y="232" width="120" height="560" rx="60" fill="#D7DEE8"/>
  <rect x="618" y="232" width="120" height="560" rx="60" fill="#D7DEE8"/>
  <path
    d="M338 334C338 297.549 367.549 268 404 268C440.451 268 470 297.549 470 334V402C470 475.454 529.546 535 603 535H614C650.451 535 680 564.549 680 601C680 637.451 650.451 667 614 667H603C529.546 667 470 726.546 470 800V806C470 842.451 440.451 872 404 872C367.549 872 338 842.451 338 806V800C338 682.916 432.916 588 550 588C432.916 588 338 493.084 338 376V334Z"
    fill="#0A84FF"
    stroke="#1471DA"
    stroke-width="16"
  />
  <path d="M404 588H614" fill="none" stroke="#73839A" stroke-opacity="0.38" stroke-width="30" stroke-linecap="round"/>
  <circle cx="404" cy="334" r="84" fill="#FFFFFF" stroke="#C0C9D5" stroke-width="18"/>
  <circle cx="614" cy="588" r="100" fill="#0A84FF" stroke="#1471DA" stroke-width="18"/>
  <circle cx="404" cy="806" r="84" fill="#FFFFFF" stroke="#C0C9D5" stroke-width="18"/>
  <path d="M360 334H448" stroke="#D7DEE8" stroke-width="22" stroke-linecap="round"/>
  <path d="M570 588H658" stroke="#FFFFFF" stroke-width="24" stroke-linecap="round"/>
  <path d="M360 806H448" stroke="#D7DEE8" stroke-width="22" stroke-linecap="round"/>
</svg>
