<svg xmlns="http://www.w3.org/2000/svg" width="1024" height="1024" viewBox="0 0 1024 1024">
  <defs>
    <linearGradient id="shell" x1="186" x2="838" y1="134" y2="890" gradientUnits="userSpaceOnUse">
      <stop offset="0" stop-color="#F6F9FE"/>
      <stop offset="1" stop-color="#D8E2EF"/>
    </linearGradient>
    <linearGradient id="core" x1="238" x2="786" y1="212" y2="812" gradientUnits="userSpaceOnUse">
      <stop offset="0" stop-color="#FFFFFF"/>
      <stop offset="1" stop-color="#EEF4FB"/>
    </linearGradient>
    <linearGradient id="blue" x1="548" x2="780" y1="258" y2="760" gradientUnits="userSpaceOnUse">
      <stop offset="0" stop-color="#50B5FF"/>
      <stop offset="0.45" stop-color="#0A84FF"/>
      <stop offset="1" stop-color="#005FCE"/>
    </linearGradient>
    <linearGradient id="panel" x1="238" x2="786" y1="246" y2="812" gradientUnits="userSpaceOnUse">
      <stop offset="0" stop-color="#FFFFFF"/>
      <stop offset="1" stop-color="#F1F5FB"/>
    </linearGradient>
    <linearGradient id="laneLight" x1="290" x2="734" y1="332" y2="692" gradientUnits="userSpaceOnUse">
      <stop offset="0" stop-color="#FFFFFF"/>
      <stop offset="1" stop-color="#E8EEF6"/>
    </linearGradient>
  </defs>

  <rect x="88" y="88" width="848" height="848" rx="262" fill="url(#shell)"/>
  <rect x="122" y="122" width="780" height="780" rx="234" fill="url(#core)" stroke="#C9D4E1" stroke-width="14"/>
  <rect x="218" y="246" width="588" height="532" rx="178" fill="url(#panel)" stroke="#CBD5E2" stroke-width="14"/>
  <path
    d="M266 288H758"
    stroke="#FFFFFF"
    stroke-opacity="0.72"
    stroke-width="22"
    stroke-linecap="round"
  />
  <rect x="290" y="332" width="444" height="108" rx="54" fill="url(#laneLight)" stroke="#C8D3E0" stroke-width="14"/>
  <rect x="542" y="332" width="192" height="108" rx="54" fill="url(#blue)" stroke="#0D6ED8" stroke-width="14"/>
  <rect x="290" y="584" width="444" height="108" rx="54" fill="url(#laneLight)" stroke="#C8D3E0" stroke-width="14"/>
  <rect x="290" y="584" width="192" height="108" rx="54" fill="url(#blue)" stroke="#0D6ED8" stroke-width="14"/>

  <path
    d="M386 638C420 592 468 531 508 481C551 425 585 386 638 386"
    fill="none"
    stroke="#5B6E88"
    stroke-width="34"
    stroke-linecap="round"
    stroke-linejoin="round"
  />
  <path
    d="M386 638C420 592 468 531 508 481C551 425 585 386 638 386"
    fill="none"
    stroke="#0A84FF"
    stroke-width="20"
    stroke-linecap="round"
    stroke-linejoin="round"
  />
  <circle cx="386" cy="638" r="58" fill="#0A84FF" stroke="#0D6ED8" stroke-width="16"/>
  <circle cx="638" cy="386" r="58" fill="#0A84FF" stroke="#0D6ED8" stroke-width="16"/>
  <circle cx="508" cy="481" r="26" fill="#FFFFFF" stroke="#C7D2E0" stroke-width="12"/>
  <path d="M347 638H425" stroke="#FFFFFF" stroke-width="18" stroke-linecap="round"/>
  <path d="M599 386H677" stroke="#FFFFFF" stroke-width="18" stroke-linecap="round"/>
</svg>
